<svg width="108" height="33" viewBox="0 0 108 33" fill="none" xmlns="http://www.w3.org/2000/svg">
<line x1="1.80867" y1="-1.80867" x2="16.1618" y2="-1.80867" transform="matrix(-0.707107 -0.707107 -0.707107 0.707107 12.707 18.5618)" stroke="#040B52" stroke-width="3.61733" stroke-linecap="round"/>
<path d="M12.5688 16.7391L6.73907 22.5689" stroke="#040B52" stroke-width="3.61733" stroke-linecap="round"/>
<circle r="2.03789" transform="matrix(1 0 0 -1 12.6902 16.3857)" fill="#0B1DD5"/>
<line x1="1.80866" y1="-1.80866" x2="16.1618" y2="-1.80866" transform="matrix(-0.707107 0.707107 0.707107 0.707107 18.3105 20.223)" stroke="#040B52" stroke-width="3.61733" stroke-linecap="round"/>
<line x1="1.80866" y1="-1.80866" x2="11.1597" y2="-1.80866" transform="matrix(0.707107 0.707107 0.707107 -0.707107 16.3042 17.3914)" stroke="#040B52" stroke-width="3.61733" stroke-linecap="round"/>
<circle r="2.04222" transform="matrix(0 -1 -1 0 16.1721 20.0857)" fill="#0B1DD5"/>
<line x1="1.80867" y1="-1.80867" x2="16.1618" y2="-1.80867" transform="matrix(0.707171 -0.707043 -0.707042 -0.707171 14.2739 12.7076)" stroke="#040B52" stroke-width="3.61733" stroke-linecap="round"/>
<line x1="1.80867" y1="-1.80867" x2="11.1597" y2="-1.80867" transform="matrix(-0.707043 -0.707171 -0.707171 0.707042 16.1255 15.4751)" stroke="#040B52" stroke-width="3.61733" stroke-linecap="round"/>
<circle r="2.03789" transform="matrix(-9.08269e-05 1 1 9.08269e-05 16.3858 12.9076)" fill="#0B1DD5"/>
<path d="M36.0456 24.5632C39.1456 24.5632 41.234 23.054 41.7235 20.729L38.5093 20.5169C38.1585 21.4714 37.2611 21.969 36.1027 21.969C34.3651 21.969 33.2638 20.8188 33.2638 18.9506V18.9424H41.7969V17.988C41.7969 13.7296 39.219 11.6248 35.9069 11.6248C32.2195 11.6248 29.8293 14.2435 29.8293 18.1103C29.8293 22.0832 32.1869 24.5632 36.0456 24.5632ZM33.2638 16.7888C33.3372 15.3611 34.4222 14.219 35.964 14.219C37.4732 14.219 38.5174 15.2959 38.5256 16.7888H33.2638ZM53.8014 15.3611C53.4914 13.0525 51.6314 11.6248 48.4661 11.6248C45.2601 11.6248 43.1472 13.1096 43.1553 15.5243C43.1472 17.4006 44.3301 18.6161 46.7774 19.1056L48.9474 19.538C50.0406 19.7582 50.5382 20.158 50.5545 20.7861C50.5382 21.5285 49.7306 22.0588 48.5151 22.0588C47.2751 22.0588 46.4511 21.5285 46.239 20.5088L42.8209 20.6882C43.1472 23.0866 45.1866 24.5632 48.5069 24.5632C51.7537 24.5632 54.0787 22.9072 54.0869 20.4353C54.0787 18.6243 52.8958 17.5393 50.4648 17.0417L48.1969 16.5848C47.0303 16.3319 46.598 15.9322 46.6061 15.3285C46.598 14.578 47.4464 14.0885 48.5232 14.0885C49.7306 14.0885 50.4485 14.7493 50.6198 15.5569L53.8014 15.3611ZM61.2476 24.5632C64.5842 24.5632 66.6808 22.6053 66.8439 19.7256H63.5645C63.3605 21.0635 62.4795 21.814 61.2884 21.814C59.665 21.814 58.6126 20.4516 58.6126 18.0532C58.6126 15.6875 59.6732 14.3332 61.2884 14.3332C62.561 14.3332 63.3768 15.1735 63.5645 16.4217H66.8439C66.6971 13.5256 64.5026 11.6248 61.2313 11.6248C57.4297 11.6248 55.0803 14.2598 55.0803 18.1022C55.0803 21.9119 57.389 24.5632 61.2476 24.5632ZM68.3798 24.3185H71.8551V17.2293C71.8551 15.6875 72.9808 14.6269 74.5145 14.6269C74.9958 14.6269 75.6566 14.7085 75.9829 14.8146V11.7309C75.6729 11.6575 75.2406 11.6085 74.8898 11.6085C73.4866 11.6085 72.3364 12.4243 71.8795 13.9743H71.749V11.788H68.3798V24.3185ZM82.1688 24.5632C85.9704 24.5632 88.3362 21.9609 88.3362 18.1022C88.3362 14.219 85.9704 11.6248 82.1688 11.6248C78.3672 11.6248 76.0015 14.219 76.0015 18.1022C76.0015 21.9609 78.3672 24.5632 82.1688 24.5632ZM82.1851 21.8711C80.4312 21.8711 79.5338 20.264 79.5338 18.0777C79.5338 15.8914 80.4312 14.2761 82.1851 14.2761C83.9064 14.2761 84.8038 15.8914 84.8038 18.0777C84.8038 20.264 83.9064 21.8711 82.1851 21.8711ZM92.0645 24.3185H95.7355L97.8892 16.438H98.0442L100.198 24.3185H103.877L107.279 11.788H103.771L101.862 20.158H101.756L99.7002 11.788H96.2495L94.2263 20.2069H94.1121L92.1705 11.788H88.6545L92.0645 24.3185Z" fill="#040B52"/>
</svg>
